<svg xmlns="http://www.w3.org/2000/svg" viewBox="0 0 900 680" font-family="Inter, -apple-system, sans-serif">
  <defs>
    <filter id="shadow" x="-2%" y="-2%" width="104%" height="104%">
      <feDropShadow dx="0" dy="2" stdDeviation="3" flood-opacity="0.1"/>
    </filter>
  </defs>

  <!-- Background -->
  <rect width="900" height="680" fill="#fafafa"/>

  <!-- Title -->
  <text x="450" y="35" text-anchor="middle" font-size="18" font-weight="700" fill="#111">The Counterweight — System Overview</text>
  <text x="450" y="55" text-anchor="middle" font-size="11" fill="#666">Publicly owned infrastructure. Community-governed. Open-source.</text>

  <!-- Platform Layer -->
  <rect x="40" y="75" width="820" height="160" rx="12" fill="#f0f4ff" stroke="#4a7aff" stroke-width="1.5" filter="url(#shadow)"/>
  <text x="450" y="98" text-anchor="middle" font-size="13" font-weight="600" fill="#4a7aff">PLATFORM LAYER (open-source, no owner, community-governed)</text>

  <!-- Platform modules -->
  <rect x="60" y="110" width="130" height="55" rx="8" fill="#fff" stroke="#d0d7e8" stroke-width="1"/>
  <text x="125" y="135" text-anchor="middle" font-size="11" font-weight="600" fill="#333">Identity</text>
  <text x="125" y="150" text-anchor="middle" font-size="9" fill="#666">Gov ID + Face + OTP</text>

  <rect x="200" y="110" width="130" height="55" rx="8" fill="#fff" stroke="#d0d7e8" stroke-width="1"/>
  <text x="265" y="135" text-anchor="middle" font-size="11" font-weight="600" fill="#333">Discussion</text>
  <text x="265" y="150" text-anchor="middle" font-size="9" fill="#666">Boards + Chat</text>

  <rect x="340" y="110" width="130" height="55" rx="8" fill="#fff" stroke="#d0d7e8" stroke-width="1"/>
  <text x="405" y="135" text-anchor="middle" font-size="11" font-weight="600" fill="#333">Marketplace</text>
  <text x="405" y="150" text-anchor="middle" font-size="9" fill="#666">Reviews + Affiliate</text>

  <rect x="480" y="110" width="130" height="55" rx="8" fill="#fff" stroke="#d0d7e8" stroke-width="1"/>
  <text x="545" y="135" text-anchor="middle" font-size="11" font-weight="600" fill="#333">Certification</text>
  <text x="545" y="150" text-anchor="middle" font-size="9" fill="#666">Skills + Products</text>

  <rect x="620" y="110" width="130" height="55" rx="8" fill="#fff" stroke="#d0d7e8" stroke-width="1"/>
  <text x="685" y="135" text-anchor="middle" font-size="11" font-weight="600" fill="#333">Governance</text>
  <text x="685" y="150" text-anchor="middle" font-size="9" fill="#666">Voting + Elections</text>

  <rect x="60" y="175" width="130" height="50" rx="8" fill="#fff" stroke="#d0d7e8" stroke-width="1"/>
  <text x="125" y="198" text-anchor="middle" font-size="11" font-weight="600" fill="#333">Legal Contracts</text>
  <text x="125" y="213" text-anchor="middle" font-size="9" fill="#666">Templates + Signing</text>

  <rect x="200" y="175" width="130" height="50" rx="8" fill="#fff" stroke="#d0d7e8" stroke-width="1"/>
  <text x="265" y="198" text-anchor="middle" font-size="11" font-weight="600" fill="#333">Talent Pool</text>
  <text x="265" y="213" text-anchor="middle" font-size="9" fill="#666">Certified Professionals</text>

  <rect x="340" y="175" width="130" height="50" rx="8" fill="#fff" stroke="#d0d7e8" stroke-width="1"/>
  <text x="405" y="198" text-anchor="middle" font-size="11" font-weight="600" fill="#333">Investment</text>
  <text x="405" y="213" text-anchor="middle" font-size="9" fill="#666">Pooled + Direct Deals</text>

  <rect x="480" y="175" width="130" height="50" rx="8" fill="#fff" stroke="#d0d7e8" stroke-width="1"/>
  <text x="545" y="198" text-anchor="middle" font-size="11" font-weight="600" fill="#333">Collective Buying</text>
  <text x="545" y="213" text-anchor="middle" font-size="9" fill="#666">Bulk Purchasing</text>

  <rect x="620" y="175" width="130" height="50" rx="8" fill="#fff" stroke="#d0d7e8" stroke-width="1"/>
  <text x="685" y="198" text-anchor="middle" font-size="11" font-weight="600" fill="#333">Translation</text>
  <text x="685" y="213" text-anchor="middle" font-size="9" fill="#666">Multi-language</text>

  <!-- Arrow down from platform -->
  <line x1="450" y1="235" x2="450" y2="265" stroke="#4a7aff" stroke-width="2" marker-end="url(#arrowBlue)"/>
  <defs>
    <marker id="arrowBlue" markerWidth="10" markerHeight="7" refX="9" refY="3.5" orient="auto">
      <polygon points="0 0, 10 3.5, 0 7" fill="#4a7aff"/>
    </marker>
    <marker id="arrowGreen" markerWidth="10" markerHeight="7" refX="9" refY="3.5" orient="auto">
      <polygon points="0 0, 10 3.5, 0 7" fill="#22a867"/>
    </marker>
    <marker id="arrowOrange" markerWidth="10" markerHeight="7" refX="9" refY="3.5" orient="auto">
      <polygon points="0 0, 10 3.5, 0 7" fill="#e67e22"/>
    </marker>
  </defs>

  <!-- Revenue Layer -->
  <rect x="40" y="270" width="820" height="120" rx="12" fill="#f0faf4" stroke="#22a867" stroke-width="1.5" filter="url(#shadow)"/>
  <text x="450" y="293" text-anchor="middle" font-size="13" font-weight="600" fill="#22a867">REVENUE STREAMS</text>

  <rect x="60" y="305" width="150" height="70" rx="8" fill="#fff" stroke="#c8e6d5" stroke-width="1"/>
  <text x="135" y="330" text-anchor="middle" font-size="11" font-weight="600" fill="#333">Affiliate Commissions</text>
  <text x="135" y="347" text-anchor="middle" font-size="9" fill="#666">Amazon, Flipkart APIs</text>
  <text x="135" y="362" text-anchor="middle" font-size="9" fill="#22a867">Day 1 revenue</text>

  <rect x="225" y="305" width="150" height="70" rx="8" fill="#fff" stroke="#c8e6d5" stroke-width="1"/>
  <text x="300" y="330" text-anchor="middle" font-size="11" font-weight="600" fill="#333">Talent Pool Fees</text>
  <text x="300" y="347" text-anchor="middle" font-size="9" fill="#666">Companies pay access</text>
  <text x="300" y="362" text-anchor="middle" font-size="9" fill="#22a867">Month 3+</text>

  <rect x="390" y="305" width="150" height="70" rx="8" fill="#fff" stroke="#c8e6d5" stroke-width="1"/>
  <text x="465" y="330" text-anchor="middle" font-size="11" font-weight="600" fill="#333">Certification Fees</text>
  <text x="465" y="347" text-anchor="middle" font-size="9" fill="#666">Candidates or sponsors</text>
  <text x="465" y="362" text-anchor="middle" font-size="9" fill="#22a867">Month 3+</text>

  <rect x="555" y="305" width="150" height="70" rx="8" fill="#fff" stroke="#c8e6d5" stroke-width="1"/>
  <text x="630" y="330" text-anchor="middle" font-size="11" font-weight="600" fill="#333">Transaction Fees</text>
  <text x="630" y="347" text-anchor="middle" font-size="9" fill="#666">Marketplace purchases</text>
  <text x="630" y="362" text-anchor="middle" font-size="9" fill="#666">When payments activate</text>

  <rect x="720" y="305" width="130" height="70" rx="8" fill="#fff" stroke="#c8e6d5" stroke-width="1"/>
  <text x="785" y="330" text-anchor="middle" font-size="11" font-weight="600" fill="#333">Bulk Buying Ops</text>
  <text x="785" y="347" text-anchor="middle" font-size="9" fill="#666">Coordination fees</text>
  <text x="785" y="362" text-anchor="middle" font-size="9" fill="#666">At scale</text>

  <!-- Arrow down -->
  <line x1="450" y1="390" x2="450" y2="420" stroke="#22a867" stroke-width="2" marker-end="url(#arrowGreen)"/>

  <!-- Revenue Distribution -->
  <rect x="40" y="425" width="820" height="100" rx="12" fill="#fffaf0" stroke="#e67e22" stroke-width="1.5" filter="url(#shadow)"/>
  <text x="450" y="448" text-anchor="middle" font-size="13" font-weight="600" fill="#e67e22">REVENUE DISTRIBUTION</text>

  <rect x="60" y="460" width="200" height="50" rx="8" fill="#fff" stroke="#f5deb3" stroke-width="1"/>
  <text x="160" y="482" text-anchor="middle" font-size="11" font-weight="600" fill="#333">20% Operations</text>
  <text x="160" y="498" text-anchor="middle" font-size="9" fill="#666">Hosting, security, legal</text>

  <rect x="275" y="460" width="140" height="50" rx="8" fill="#fff" stroke="#f5deb3" stroke-width="1"/>
  <text x="345" y="482" text-anchor="middle" font-size="11" font-weight="600" fill="#333">10% Reserve</text>
  <text x="345" y="498" text-anchor="middle" font-size="9" fill="#666">Runway, emergencies</text>

  <rect x="430" y="460" width="200" height="50" rx="8" fill="#fff" stroke="#f5deb3" stroke-width="1"/>
  <text x="530" y="482" text-anchor="middle" font-size="11" font-weight="600" fill="#333">70% Builders + Investors</text>
  <text x="530" y="498" text-anchor="middle" font-size="9" fill="#666">Builders 40-70% / Investors 0-30%</text>

  <rect x="645" y="460" width="205" height="50" rx="8" fill="#fff" stroke="#f5deb3" stroke-width="1"/>
  <text x="748" y="482" text-anchor="middle" font-size="11" font-weight="600" fill="#333">Reviewer Commissions</text>
  <text x="748" y="498" text-anchor="middle" font-size="9" fill="#666">Share of affiliate revenue</text>

  <!-- Arrow down -->
  <line x1="450" y1="525" x2="450" y2="555" stroke="#e67e22" stroke-width="2" marker-end="url(#arrowOrange)"/>

  <!-- External Layer -->
  <rect x="40" y="560" width="820" height="100" rx="12" fill="#f5f5f5" stroke="#888" stroke-width="1.5" filter="url(#shadow)"/>
  <text x="450" y="583" text-anchor="middle" font-size="13" font-weight="600" fill="#555">EXTERNAL INFRASTRUCTURE (platform never holds money)</text>

  <rect x="60" y="595" width="155" height="50" rx="8" fill="#fff" stroke="#ddd" stroke-width="1"/>
  <text x="138" y="617" text-anchor="middle" font-size="11" font-weight="600" fill="#333">UPI (India)</text>
  <text x="138" y="633" text-anchor="middle" font-size="9" fill="#666">Free P2P</text>

  <rect x="230" y="595" width="155" height="50" rx="8" fill="#fff" stroke="#ddd" stroke-width="1"/>
  <text x="308" y="617" text-anchor="middle" font-size="11" font-weight="600" fill="#333">SEPA (EU)</text>
  <text x="308" y="633" text-anchor="middle" font-size="9" fill="#666">Pennies per transfer</text>

  <rect x="400" y="595" width="155" height="50" rx="8" fill="#fff" stroke="#ddd" stroke-width="1"/>
  <text x="478" y="617" text-anchor="middle" font-size="11" font-weight="600" fill="#333">ACH (US)</text>
  <text x="478" y="633" text-anchor="middle" font-size="9" fill="#666">$0.20-0.50 flat</text>

  <rect x="570" y="595" width="155" height="50" rx="8" fill="#fff" stroke="#ddd" stroke-width="1"/>
  <text x="648" y="617" text-anchor="middle" font-size="11" font-weight="600" fill="#333">Direct Bank Transfer</text>
  <text x="648" y="633" text-anchor="middle" font-size="9" fill="#666">Zero fee (investments)</text>

  <rect x="740" y="595" width="110" height="50" rx="8" fill="#fff" stroke="#ddd" stroke-width="1"/>
  <text x="795" y="617" text-anchor="middle" font-size="11" font-weight="600" fill="#333">Gov ID APIs</text>
  <text x="795" y="633" text-anchor="middle" font-size="9" fill="#666">DigiLocker, eIDAS</text>
</svg>
